<?xml version="1.0" encoding="UTF-8" standalone="no"?>
<!DOCTYPE svg PUBLIC "-//W3C//DTD SVG 1.1//EN"
 "http://www.w3.org/Graphics/SVG/1.1/DTD/svg11.dtd">
<!-- Generated by graphviz version 2.38.0 (20140413.2041)
 -->
<!-- Title: controllers_diagram Pages: 1 -->
<svg width="957pt" height="857pt"
 viewBox="0.00 0.00 956.63 857.00" xmlns="http://www.w3.org/2000/svg" xmlns:xlink="http://www.w3.org/1999/xlink">
<g id="graph0" class="graph" transform="scale(1 1) rotate(0) translate(354.938 463.5)">
<title>controllers_diagram</title>
<polygon fill="none" stroke="none" points="-354.938,393.5 -354.938,-463.5 601.688,-463.5 601.688,393.5 -354.938,393.5"/>
<!-- _diagram_info -->
<g id="node1" class="node"><title>_diagram_info</title>
<text text-anchor="start" x="398.312" y="330.9" font-family="Times,serif" font-size="13.00">Controllers diagram</text>
<text text-anchor="start" x="398.312" y="343.9" font-family="Times,serif" font-size="13.00">Date: Jun 28 2016 &#45; 00:33</text>
<text text-anchor="start" x="398.312" y="356.9" font-family="Times,serif" font-size="13.00">Migration version: 20160628021014</text>
<text text-anchor="start" x="398.312" y="369.9" font-family="Times,serif" font-size="13.00">Generated by RailRoady 1.4.2</text>
<text text-anchor="start" x="398.312" y="382.9" font-family="Times,serif" font-size="13.00">http://railroady.prestonlee.com</text>
</g>
<!-- ApplicationController -->
<g id="node2" class="node"><title>ApplicationController</title>
<path fill="none" stroke="black" d="M-76.6218,70.4429C-76.6218,70.4429 39.0198,70.4429 39.0198,70.4429 45.0198,70.4429 51.0198,64.4429 51.0198,58.4429 51.0198,58.4429 51.0198,-9.55708 51.0198,-9.55708 51.0198,-15.5571 45.0198,-21.5571 39.0198,-21.5571 39.0198,-21.5571 -76.6218,-21.5571 -76.6218,-21.5571 -82.6218,-21.5571 -88.6218,-15.5571 -88.6218,-9.55708 -88.6218,-9.55708 -88.6218,58.4429 -88.6218,58.4429 -88.6218,64.4429 -82.6218,70.4429 -76.6218,70.4429"/>
<text text-anchor="middle" x="-18.801" y="-6.35708" font-family="Times,serif" font-size="14.00">ApplicationController</text>
<polyline fill="none" stroke="black" points="-88.6218,0.44292 51.0198,0.44292 "/>
<polyline fill="none" stroke="black" points="-88.6218,24.4429 51.0198,24.4429 "/>
<polyline fill="none" stroke="black" points="-88.6218,48.4429 51.0198,48.4429 "/>
<text text-anchor="start" x="-80.6218" y="63.6429" font-family="Times,serif" font-size="14.00">_layout</text>
</g>
<!-- DeviceModelsController -->
<g id="node3" class="node"><title>DeviceModelsController</title>
<path fill="none" stroke="black" d="M203.649,-94.4751C203.649,-94.4751 334.835,-94.4751 334.835,-94.4751 340.835,-94.4751 346.835,-100.475 346.835,-106.475 346.835,-106.475 346.835,-284.475 346.835,-284.475 346.835,-290.475 340.835,-296.475 334.835,-296.475 334.835,-296.475 203.649,-296.475 203.649,-296.475 197.649,-296.475 191.649,-290.475 191.649,-284.475 191.649,-284.475 191.649,-106.475 191.649,-106.475 191.649,-100.475 197.649,-94.4751 203.649,-94.4751"/>
<text text-anchor="middle" x="269.242" y="-281.275" font-family="Times,serif" font-size="14.00">DeviceModelsController</text>
<polyline fill="none" stroke="black" points="191.649,-274.475 346.835,-274.475 "/>
<text text-anchor="start" x="199.649" y="-259.275" font-family="Times,serif" font-size="14.00">index</text>
<text text-anchor="start" x="199.649" y="-245.275" font-family="Times,serif" font-size="14.00">destroy</text>
<text text-anchor="start" x="199.649" y="-231.275" font-family="Times,serif" font-size="14.00">edit</text>
<text text-anchor="start" x="199.649" y="-217.275" font-family="Times,serif" font-size="14.00">create</text>
<text text-anchor="start" x="199.649" y="-203.275" font-family="Times,serif" font-size="14.00">new</text>
<text text-anchor="start" x="199.649" y="-189.275" font-family="Times,serif" font-size="14.00">show</text>
<text text-anchor="start" x="199.649" y="-175.275" font-family="Times,serif" font-size="14.00">update</text>
<polyline fill="none" stroke="black" points="191.649,-168.475 346.835,-168.475 "/>
<polyline fill="none" stroke="black" points="191.649,-144.475 346.835,-144.475 "/>
<text text-anchor="start" x="199.649" y="-129.275" font-family="Times,serif" font-size="14.00">_layout</text>
<text text-anchor="start" x="199.649" y="-115.275" font-family="Times,serif" font-size="14.00">device_model_params</text>
<text text-anchor="start" x="199.649" y="-101.275" font-family="Times,serif" font-size="14.00">set_device_model</text>
</g>
<!-- ApplicationController&#45;&gt;DeviceModelsController -->
<g id="edge1" class="edge"><title>ApplicationController&#45;&gt;DeviceModelsController</title>
<path fill="none" stroke="black" d="M41.5822,-21.6591C85.1337,-54.9102 144.3,-100.083 191.4,-136.044"/>
</g>
<!-- LocationsController -->
<g id="node4" class="node"><title>LocationsController</title>
<path fill="none" stroke="black" d="M-142.385,300.529C-142.385,300.529 -37.633,300.529 -37.633,300.529 -31.633,300.529 -25.633,294.529 -25.633,288.529 -25.633,288.529 -25.633,208.529 -25.633,208.529 -25.633,202.529 -31.633,196.529 -37.633,196.529 -37.633,196.529 -142.385,196.529 -142.385,196.529 -148.385,196.529 -154.385,202.529 -154.385,208.529 -154.385,208.529 -154.385,288.529 -154.385,288.529 -154.385,294.529 -148.385,300.529 -142.385,300.529"/>
<text text-anchor="middle" x="-90.009" y="211.729" font-family="Times,serif" font-size="14.00">LocationsController</text>
<polyline fill="none" stroke="black" points="-154.385,218.529 -25.633,218.529 "/>
<text text-anchor="start" x="-146.385" y="233.729" font-family="Times,serif" font-size="14.00">by_user</text>
<text text-anchor="start" x="-146.385" y="247.729" font-family="Times,serif" font-size="14.00">by_vehicle</text>
<polyline fill="none" stroke="black" points="-154.385,254.529 -25.633,254.529 "/>
<polyline fill="none" stroke="black" points="-154.385,278.529 -25.633,278.529 "/>
<text text-anchor="start" x="-146.385" y="293.729" font-family="Times,serif" font-size="14.00">_layout</text>
</g>
<!-- ApplicationController&#45;&gt;LocationsController -->
<g id="edge2" class="edge"><title>ApplicationController&#45;&gt;LocationsController</title>
<path fill="none" stroke="black" d="M-33.469,70.602C-45.0723,107.117 -61.2767,158.111 -73.3646,196.15"/>
</g>
<!-- ModelsController -->
<g id="node5" class="node"><title>ModelsController</title>
<path fill="none" stroke="black" d="M-338.938,-174.13C-338.938,-174.13 -247.393,-174.13 -247.393,-174.13 -241.393,-174.13 -235.393,-180.13 -235.393,-186.13 -235.393,-186.13 -235.393,-252.13 -235.393,-252.13 -235.393,-258.13 -241.393,-264.13 -247.393,-264.13 -247.393,-264.13 -338.938,-264.13 -338.938,-264.13 -344.938,-264.13 -350.938,-258.13 -350.938,-252.13 -350.938,-252.13 -350.938,-186.13 -350.938,-186.13 -350.938,-180.13 -344.938,-174.13 -338.938,-174.13"/>
<text text-anchor="middle" x="-293.166" y="-248.93" font-family="Times,serif" font-size="14.00">ModelsController</text>
<polyline fill="none" stroke="black" points="-350.938,-242.13 -235.393,-242.13 "/>
<text text-anchor="start" x="-342.938" y="-226.93" font-family="Times,serif" font-size="14.00">index</text>
<polyline fill="none" stroke="black" points="-350.938,-220.13 -235.393,-220.13 "/>
<polyline fill="none" stroke="black" points="-350.938,-196.13 -235.393,-196.13 "/>
<text text-anchor="start" x="-342.938" y="-180.93" font-family="Times,serif" font-size="14.00">_layout</text>
</g>
<!-- ApplicationController&#45;&gt;ModelsController -->
<g id="edge3" class="edge"><title>ApplicationController&#45;&gt;ModelsController</title>
<path fill="none" stroke="black" d="M-70.7295,-21.6577C-119.977,-65.378 -193.51,-130.658 -242.378,-174.042"/>
</g>
<!-- PricesController -->
<g id="node6" class="node"><title>PricesController</title>
<path fill="none" stroke="black" d="M36.0578,-143.815C36.0578,-143.815 119.817,-143.815 119.817,-143.815 125.817,-143.815 131.817,-149.815 131.817,-155.815 131.817,-155.815 131.817,-221.815 131.817,-221.815 131.817,-227.815 125.817,-233.815 119.817,-233.815 119.817,-233.815 36.0578,-233.815 36.0578,-233.815 30.0578,-233.815 24.0578,-227.815 24.0578,-221.815 24.0578,-221.815 24.0578,-155.815 24.0578,-155.815 24.0578,-149.815 30.0578,-143.815 36.0578,-143.815"/>
<text text-anchor="middle" x="77.9371" y="-218.615" font-family="Times,serif" font-size="14.00">PricesController</text>
<polyline fill="none" stroke="black" points="24.0578,-211.815 131.817,-211.815 "/>
<text text-anchor="start" x="32.0578" y="-196.615" font-family="Times,serif" font-size="14.00">index</text>
<polyline fill="none" stroke="black" points="24.0578,-189.815 131.817,-189.815 "/>
<polyline fill="none" stroke="black" points="24.0578,-165.815 131.817,-165.815 "/>
<text text-anchor="start" x="32.0578" y="-150.615" font-family="Times,serif" font-size="14.00">_layout</text>
</g>
<!-- ApplicationController&#45;&gt;PricesController -->
<g id="edge4" class="edge"><title>ApplicationController&#45;&gt;PricesController</title>
<path fill="none" stroke="black" d="M2.0706,-21.5684C18.456,-57.6899 41.1455,-107.709 57.4351,-143.619"/>
</g>
<!-- SessionsController -->
<g id="node7" class="node"><title>SessionsController</title>
<path fill="none" stroke="black" d="M-137.001,-139.896C-137.001,-139.896 -39.222,-139.896 -39.222,-139.896 -33.222,-139.896 -27.222,-145.896 -27.222,-151.896 -27.222,-151.896 -27.222,-245.896 -27.222,-245.896 -27.222,-251.896 -33.222,-257.896 -39.222,-257.896 -39.222,-257.896 -137.001,-257.896 -137.001,-257.896 -143.001,-257.896 -149.001,-251.896 -149.001,-245.896 -149.001,-245.896 -149.001,-151.896 -149.001,-151.896 -149.001,-145.896 -143.001,-139.896 -137.001,-139.896"/>
<text text-anchor="middle" x="-88.1116" y="-242.696" font-family="Times,serif" font-size="14.00">SessionsController</text>
<polyline fill="none" stroke="black" points="-149.001,-235.896 -27.222,-235.896 "/>
<text text-anchor="start" x="-141.001" y="-220.696" font-family="Times,serif" font-size="14.00">create</text>
<text text-anchor="start" x="-141.001" y="-206.696" font-family="Times,serif" font-size="14.00">destroy</text>
<text text-anchor="start" x="-141.001" y="-192.696" font-family="Times,serif" font-size="14.00">new</text>
<polyline fill="none" stroke="black" points="-149.001,-185.896 -27.222,-185.896 "/>
<polyline fill="none" stroke="black" points="-149.001,-161.896 -27.222,-161.896 "/>
<text text-anchor="start" x="-141.001" y="-146.696" font-family="Times,serif" font-size="14.00">_layout</text>
</g>
<!-- ApplicationController&#45;&gt;SessionsController -->
<g id="edge5" class="edge"><title>ApplicationController&#45;&gt;SessionsController</title>
<path fill="none" stroke="black" d="M-33.0782,-21.5623C-43.6986,-55.7843 -58.2792,-102.767 -69.7644,-139.776"/>
</g>
<!-- StaticPagesController -->
<g id="node8" class="node"><title>StaticPagesController</title>
<path fill="none" stroke="black" d="M-322.54,137.616C-322.54,137.616 -208.45,137.616 -208.45,137.616 -202.45,137.616 -196.45,131.616 -196.45,125.616 -196.45,125.616 -196.45,59.616 -196.45,59.616 -196.45,53.616 -202.45,47.616 -208.45,47.616 -208.45,47.616 -322.54,47.616 -322.54,47.616 -328.54,47.616 -334.54,53.616 -334.54,59.616 -334.54,59.616 -334.54,125.616 -334.54,125.616 -334.54,131.616 -328.54,137.616 -322.54,137.616"/>
<text text-anchor="middle" x="-265.495" y="62.816" font-family="Times,serif" font-size="14.00">StaticPagesController</text>
<polyline fill="none" stroke="black" points="-334.54,69.616 -196.45,69.616 "/>
<text text-anchor="start" x="-326.54" y="84.816" font-family="Times,serif" font-size="14.00">home</text>
<polyline fill="none" stroke="black" points="-334.54,91.616 -196.45,91.616 "/>
<polyline fill="none" stroke="black" points="-334.54,115.616 -196.45,115.616 "/>
<text text-anchor="start" x="-326.54" y="130.816" font-family="Times,serif" font-size="14.00">_layout</text>
</g>
<!-- ApplicationController&#45;&gt;StaticPagesController -->
<g id="edge6" class="edge"><title>ApplicationController&#45;&gt;StaticPagesController</title>
<path fill="none" stroke="black" d="M-88.8338,43.7962C-122.452,53.0864 -162.612,64.1846 -196.141,73.4502"/>
</g>
<!-- TrackingDevicesController -->
<g id="node9" class="node"><title>TrackingDevicesController</title>
<path fill="none" stroke="black" d="M161.066,126.277C161.066,126.277 305.746,126.277 305.746,126.277 311.746,126.277 317.746,120.277 317.746,114.277 317.746,114.277 317.746,-63.7233 317.746,-63.7233 317.746,-69.7233 311.746,-75.7233 305.746,-75.7233 305.746,-75.7233 161.066,-75.7233 161.066,-75.7233 155.066,-75.7233 149.066,-69.7233 149.066,-63.7233 149.066,-63.7233 149.066,114.277 149.066,114.277 149.066,120.277 155.066,126.277 161.066,126.277"/>
<text text-anchor="middle" x="233.406" y="-60.5233" font-family="Times,serif" font-size="14.00">TrackingDevicesController</text>
<polyline fill="none" stroke="black" points="149.066,-53.7233 317.746,-53.7233 "/>
<text text-anchor="start" x="157.066" y="-38.5233" font-family="Times,serif" font-size="14.00">index</text>
<text text-anchor="start" x="157.066" y="-24.5233" font-family="Times,serif" font-size="14.00">destroy</text>
<text text-anchor="start" x="157.066" y="-10.5233" font-family="Times,serif" font-size="14.00">edit</text>
<text text-anchor="start" x="157.066" y="3.47668" font-family="Times,serif" font-size="14.00">create</text>
<text text-anchor="start" x="157.066" y="17.4767" font-family="Times,serif" font-size="14.00">new</text>
<text text-anchor="start" x="157.066" y="31.4767" font-family="Times,serif" font-size="14.00">show</text>
<text text-anchor="start" x="157.066" y="45.4767" font-family="Times,serif" font-size="14.00">update</text>
<polyline fill="none" stroke="black" points="149.066,52.2767 317.746,52.2767 "/>
<polyline fill="none" stroke="black" points="149.066,76.2767 317.746,76.2767 "/>
<text text-anchor="start" x="157.066" y="91.4767" font-family="Times,serif" font-size="14.00">_layout</text>
<text text-anchor="start" x="157.066" y="105.477" font-family="Times,serif" font-size="14.00">set_tracking_device</text>
<text text-anchor="start" x="157.066" y="119.477" font-family="Times,serif" font-size="14.00">tracking_device_params</text>
</g>
<!-- ApplicationController&#45;&gt;TrackingDevicesController -->
<g id="edge7" class="edge"><title>ApplicationController&#45;&gt;TrackingDevicesController</title>
<path fill="none" stroke="black" d="M51.1177,24.6741C81.44,24.7743 117.21,24.8926 148.997,24.9976"/>
</g>
<!-- TracksController -->
<g id="node10" class="node"><title>TracksController</title>
<path fill="none" stroke="black" d="M-338.189,311.814C-338.189,311.814 -251.04,311.814 -251.04,311.814 -245.04,311.814 -239.04,305.814 -239.04,299.814 -239.04,299.814 -239.04,233.814 -239.04,233.814 -239.04,227.814 -245.04,221.814 -251.04,221.814 -251.04,221.814 -338.189,221.814 -338.189,221.814 -344.189,221.814 -350.189,227.814 -350.189,233.814 -350.189,233.814 -350.189,299.814 -350.189,299.814 -350.189,305.814 -344.189,311.814 -338.189,311.814"/>
<text text-anchor="middle" x="-294.614" y="237.014" font-family="Times,serif" font-size="14.00">TracksController</text>
<polyline fill="none" stroke="black" points="-350.189,243.814 -239.04,243.814 "/>
<text text-anchor="start" x="-342.189" y="259.014" font-family="Times,serif" font-size="14.00">create</text>
<polyline fill="none" stroke="black" points="-350.189,265.814 -239.04,265.814 "/>
<polyline fill="none" stroke="black" points="-350.189,289.814 -239.04,289.814 "/>
<text text-anchor="start" x="-342.189" y="305.014" font-family="Times,serif" font-size="14.00">_layout</text>
</g>
<!-- ApplicationController&#45;&gt;TracksController -->
<g id="edge8" class="edge"><title>ApplicationController&#45;&gt;TracksController</title>
<path fill="none" stroke="black" d="M-71.3286,70.6015C-120.719,114.003 -194.197,178.572 -243.216,221.647"/>
</g>
<!-- UsersController -->
<g id="node11" class="node"><title>UsersController</title>
<path fill="none" stroke="black" d="M35.3334,297.172C35.3334,297.172 116.761,297.172 116.761,297.172 122.761,297.172 128.761,291.172 128.761,285.172 128.761,285.172 128.761,191.172 128.761,191.172 128.761,185.172 122.761,179.172 116.761,179.172 116.761,179.172 35.3334,179.172 35.3334,179.172 29.3334,179.172 23.3334,185.172 23.3334,191.172 23.3334,191.172 23.3334,285.172 23.3334,285.172 23.3334,291.172 29.3334,297.172 35.3334,297.172"/>
<text text-anchor="middle" x="76.0472" y="194.372" font-family="Times,serif" font-size="14.00">UsersController</text>
<polyline fill="none" stroke="black" points="23.3334,201.172 128.761,201.172 "/>
<text text-anchor="start" x="31.3334" y="216.372" font-family="Times,serif" font-size="14.00">create</text>
<text text-anchor="start" x="31.3334" y="230.372" font-family="Times,serif" font-size="14.00">index</text>
<text text-anchor="start" x="31.3334" y="244.372" font-family="Times,serif" font-size="14.00">new</text>
<polyline fill="none" stroke="black" points="23.3334,251.172 128.761,251.172 "/>
<polyline fill="none" stroke="black" points="23.3334,275.172 128.761,275.172 "/>
<text text-anchor="start" x="31.3334" y="290.372" font-family="Times,serif" font-size="14.00">_layout</text>
</g>
<!-- ApplicationController&#45;&gt;UsersController -->
<g id="edge9" class="edge"><title>ApplicationController&#45;&gt;UsersController</title>
<path fill="none" stroke="black" d="M1.66284,70.5558C15.7676,102.339 34.6368,144.859 49.8409,179.119"/>
</g>
<!-- VehiclesController -->
<g id="node12" class="node"><title>VehiclesController</title>
<path fill="none" stroke="black" d="M219.907,297.488C219.907,297.488 316.88,297.488 316.88,297.488 322.88,297.488 328.88,291.488 328.88,285.488 328.88,285.488 328.88,205.488 328.88,205.488 328.88,199.488 322.88,193.488 316.88,193.488 316.88,193.488 219.907,193.488 219.907,193.488 213.907,193.488 207.907,199.488 207.907,205.488 207.907,205.488 207.907,285.488 207.907,285.488 207.907,291.488 213.907,297.488 219.907,297.488"/>
<text text-anchor="middle" x="268.394" y="208.688" font-family="Times,serif" font-size="14.00">VehiclesController</text>
<polyline fill="none" stroke="black" points="207.907,215.488 328.88,215.488 "/>
<text text-anchor="start" x="215.907" y="230.688" font-family="Times,serif" font-size="14.00">create</text>
<text text-anchor="start" x="215.907" y="244.688" font-family="Times,serif" font-size="14.00">new</text>
<polyline fill="none" stroke="black" points="207.907,251.488 328.88,251.488 "/>
<polyline fill="none" stroke="black" points="207.907,275.488 328.88,275.488 "/>
<text text-anchor="start" x="215.907" y="290.688" font-family="Times,serif" font-size="14.00">_layout</text>
</g>
<!-- ApplicationController&#45;&gt;VehiclesController -->
<g id="edge10" class="edge"><title>ApplicationController&#45;&gt;VehiclesController</title>
<path fill="none" stroke="black" d="M41.0548,70.5121C89.8791,108.091 158.557,160.95 207.626,198.717"/>
</g>
<!-- VersionsController -->
<g id="node13" class="node"><title>VersionsController</title>
<path fill="none" stroke="black" d="M-317.116,-0.129613C-317.116,-0.129613 -219.35,-0.129613 -219.35,-0.129613 -213.35,-0.129613 -207.35,-6.12961 -207.35,-12.1296 -207.35,-12.1296 -207.35,-78.1296 -207.35,-78.1296 -207.35,-84.1296 -213.35,-90.1296 -219.35,-90.1296 -219.35,-90.1296 -317.116,-90.1296 -317.116,-90.1296 -323.116,-90.1296 -329.116,-84.1296 -329.116,-78.1296 -329.116,-78.1296 -329.116,-12.1296 -329.116,-12.1296 -329.116,-6.12961 -323.116,-0.129613 -317.116,-0.129613"/>
<text text-anchor="middle" x="-268.233" y="-74.9296" font-family="Times,serif" font-size="14.00">VersionsController</text>
<polyline fill="none" stroke="black" points="-329.116,-68.1296 -207.35,-68.1296 "/>
<text text-anchor="start" x="-321.116" y="-52.9296" font-family="Times,serif" font-size="14.00">index</text>
<polyline fill="none" stroke="black" points="-329.116,-46.1296 -207.35,-46.1296 "/>
<polyline fill="none" stroke="black" points="-329.116,-22.1296 -207.35,-22.1296 "/>
<text text-anchor="start" x="-321.116" y="-6.92961" font-family="Times,serif" font-size="14.00">_layout</text>
</g>
<!-- ApplicationController&#45;&gt;VersionsController -->
<g id="edge11" class="edge"><title>ApplicationController&#45;&gt;VersionsController</title>
<path fill="none" stroke="black" d="M-88.9455,4.87795C-126.122,-5.49135 -171.356,-18.1083 -207.088,-28.0748"/>
</g>
<!-- WebConsole::ApplicationController -->
<g id="node14" class="node"><title>WebConsole::ApplicationController</title>
<path fill="none" stroke="black" d="M362.688,-352C362.688,-352 557.312,-352 557.312,-352 563.312,-352 569.312,-358 569.312,-364 569.312,-364 569.312,-446 569.312,-446 569.312,-452 563.312,-458 557.312,-458 557.312,-458 362.688,-458 362.688,-458 356.688,-458 350.688,-452 350.688,-446 350.688,-446 350.688,-364 350.688,-364 350.688,-358 356.688,-352 362.688,-352"/>
<text text-anchor="middle" x="460" y="-442.8" font-family="Times,serif" font-size="14.00">WebConsole::ApplicationController</text>
<polyline fill="none" stroke="black" points="350.688,-436 569.312,-436 "/>
<polyline fill="none" stroke="black" points="350.688,-412 569.312,-412 "/>
<polyline fill="none" stroke="black" points="350.688,-388 569.312,-388 "/>
<text text-anchor="start" x="358.688" y="-372.8" font-family="Times,serif" font-size="14.00">_layout</text>
<text text-anchor="start" x="358.688" y="-358.8" font-family="Times,serif" font-size="14.00">prevent_unauthorized_requests!</text>
</g>
<!-- WebConsole::ConsoleSessionsController -->
<g id="node15" class="node"><title>WebConsole::ConsoleSessionsController</title>
<path fill="none" stroke="black" d="M-105.326,-313C-105.326,-313 117.326,-313 117.326,-313 123.326,-313 129.326,-319 129.326,-325 129.326,-325 129.326,-447 129.326,-447 129.326,-453 123.326,-459 117.326,-459 117.326,-459 -105.326,-459 -105.326,-459 -111.326,-459 -117.326,-453 -117.326,-447 -117.326,-447 -117.326,-325 -117.326,-325 -117.326,-319 -111.326,-313 -105.326,-313"/>
<text text-anchor="middle" x="6" y="-443.8" font-family="Times,serif" font-size="14.00">WebConsole::ConsoleSessionsController</text>
<polyline fill="none" stroke="black" points="-117.326,-437 129.326,-437 "/>
<text text-anchor="start" x="-109.326" y="-421.8" font-family="Times,serif" font-size="14.00">configuration</text>
<text text-anchor="start" x="-109.326" y="-407.8" font-family="Times,serif" font-size="14.00">index</text>
<text text-anchor="start" x="-109.326" y="-393.8" font-family="Times,serif" font-size="14.00">input</text>
<text text-anchor="start" x="-109.326" y="-379.8" font-family="Times,serif" font-size="14.00">pending_output</text>
<polyline fill="none" stroke="black" points="-117.326,-373 129.326,-373 "/>
<polyline fill="none" stroke="black" points="-117.326,-349 129.326,-349 "/>
<text text-anchor="start" x="-109.326" y="-333.8" font-family="Times,serif" font-size="14.00">_layout</text>
<text text-anchor="start" x="-109.326" y="-319.8" font-family="Times,serif" font-size="14.00">console_session_params</text>
</g>
</g>
</svg>
