<?xml version="1.0" encoding="UTF-8" standalone="no"?>
<!DOCTYPE svg PUBLIC "-//W3C//DTD SVG 1.1//EN"
 "http://www.w3.org/Graphics/SVG/1.1/DTD/svg11.dtd">
<!-- Generated by graphviz version 2.38.0 (20140413.2041)
 -->
<!-- Title: models_diagram Pages: 1 -->
<svg width="1377pt" height="1130pt"
 viewBox="0.00 0.00 1376.91 1130.00" xmlns="http://www.w3.org/2000/svg" xmlns:xlink="http://www.w3.org/1999/xlink">
<g id="graph0" class="graph" transform="scale(1 1) rotate(0) translate(4 1126)">
<title>models_diagram</title>
<polygon fill="none" stroke="none" points="-4,4 -4,-1126 1372.91,-1126 1372.91,4 -4,4"/>
<!-- _diagram_info -->
<g id="node1" class="node"><title>_diagram_info</title>
<text text-anchor="start" x="354.39" y="-1107.6" font-family="Times,serif" font-size="13.00">Models diagram</text>
<text text-anchor="start" x="354.39" y="-1094.6" font-family="Times,serif" font-size="13.00">Date: Jun 28 2016 &#45; 00:33</text>
<text text-anchor="start" x="354.39" y="-1081.6" font-family="Times,serif" font-size="13.00">Migration version: 20160628021014</text>
<text text-anchor="start" x="354.39" y="-1068.6" font-family="Times,serif" font-size="13.00">Generated by RailRoady 1.4.2</text>
<text text-anchor="start" x="354.39" y="-1055.6" font-family="Times,serif" font-size="13.00">http://railroady.prestonlee.com</text>
</g>
<!-- Address -->
<g id="node2" class="node"><title>Address</title>
<path fill="none" stroke="black" d="M196.796,-165.5C196.796,-165.5 293.359,-165.5 293.359,-165.5 299.359,-165.5 305.359,-171.5 305.359,-177.5 305.359,-177.5 305.359,-295.5 305.359,-295.5 305.359,-301.5 299.359,-307.5 293.359,-307.5 293.359,-307.5 196.796,-307.5 196.796,-307.5 190.796,-307.5 184.796,-301.5 184.796,-295.5 184.796,-295.5 184.796,-177.5 184.796,-177.5 184.796,-171.5 190.796,-165.5 196.796,-165.5"/>
<text text-anchor="middle" x="245.078" y="-292.3" font-family="Times,serif" font-size="14.00">Address</text>
<polyline fill="none" stroke="black" points="184.796,-285.5 305.359,-285.5 "/>
<text text-anchor="start" x="192.796" y="-270.3" font-family="Times,serif" font-size="14.00">zip_code :varchar</text>
<text text-anchor="start" x="192.796" y="-256.3" font-family="Times,serif" font-size="14.00">user_id :integer</text>
<text text-anchor="start" x="192.796" y="-242.3" font-family="Times,serif" font-size="14.00">city_id :integer</text>
<text text-anchor="start" x="192.796" y="-228.3" font-family="Times,serif" font-size="14.00">name :varchar</text>
<text text-anchor="start" x="192.796" y="-214.3" font-family="Times,serif" font-size="14.00">street :varchar</text>
<text text-anchor="start" x="192.796" y="-200.3" font-family="Times,serif" font-size="14.00">number :integer</text>
<text text-anchor="start" x="192.796" y="-186.3" font-family="Times,serif" font-size="14.00">directions :varchar</text>
<text text-anchor="start" x="192.796" y="-172.3" font-family="Times,serif" font-size="14.00">id :INTEGER</text>
</g>
<!-- Brand -->
<g id="node3" class="node"><title>Brand</title>
<path fill="none" stroke="black" d="M541.572,-663.5C541.572,-663.5 650.583,-663.5 650.583,-663.5 656.583,-663.5 662.583,-669.5 662.583,-675.5 662.583,-675.5 662.583,-751.5 662.583,-751.5 662.583,-757.5 656.583,-763.5 650.583,-763.5 650.583,-763.5 541.572,-763.5 541.572,-763.5 535.572,-763.5 529.572,-757.5 529.572,-751.5 529.572,-751.5 529.572,-675.5 529.572,-675.5 529.572,-669.5 535.572,-663.5 541.572,-663.5"/>
<text text-anchor="middle" x="596.078" y="-748.3" font-family="Times,serif" font-size="14.00">Brand</text>
<polyline fill="none" stroke="black" points="529.572,-741.5 662.583,-741.5 "/>
<text text-anchor="start" x="537.572" y="-726.3" font-family="Times,serif" font-size="14.00">id :INTEGER</text>
<text text-anchor="start" x="537.572" y="-712.3" font-family="Times,serif" font-size="14.00">country_id :integer</text>
<text text-anchor="start" x="537.572" y="-698.3" font-family="Times,serif" font-size="14.00">name :varchar</text>
<text text-anchor="start" x="537.572" y="-684.3" font-family="Times,serif" font-size="14.00">created_at :datetime</text>
<text text-anchor="start" x="537.572" y="-670.3" font-family="Times,serif" font-size="14.00">updated_at :datetime</text>
</g>
<!-- Model -->
<g id="node10" class="node"><title>Model</title>
<path fill="none" stroke="black" d="M560.572,-414.5C560.572,-414.5 669.583,-414.5 669.583,-414.5 675.583,-414.5 681.583,-420.5 681.583,-426.5 681.583,-426.5 681.583,-502.5 681.583,-502.5 681.583,-508.5 675.583,-514.5 669.583,-514.5 669.583,-514.5 560.572,-514.5 560.572,-514.5 554.572,-514.5 548.572,-508.5 548.572,-502.5 548.572,-502.5 548.572,-426.5 548.572,-426.5 548.572,-420.5 554.572,-414.5 560.572,-414.5"/>
<text text-anchor="middle" x="615.078" y="-499.3" font-family="Times,serif" font-size="14.00">Model</text>
<polyline fill="none" stroke="black" points="548.572,-492.5 681.583,-492.5 "/>
<text text-anchor="start" x="556.572" y="-477.3" font-family="Times,serif" font-size="14.00">id :INTEGER</text>
<text text-anchor="start" x="556.572" y="-463.3" font-family="Times,serif" font-size="14.00">name :varchar</text>
<text text-anchor="start" x="556.572" y="-449.3" font-family="Times,serif" font-size="14.00">brand_id :integer</text>
<text text-anchor="start" x="556.572" y="-435.3" font-family="Times,serif" font-size="14.00">created_at :datetime</text>
<text text-anchor="start" x="556.572" y="-421.3" font-family="Times,serif" font-size="14.00">updated_at :datetime</text>
</g>
<!-- Brand&#45;&gt;Model -->
<g id="edge2" class="edge"><title>Brand&#45;&gt;Model</title>
<path fill="none" stroke="#7761a6" d="M600.473,-655.356C603.491,-616.126 607.486,-564.19 610.535,-524.556"/>
<ellipse fill="none" stroke="#7761a6" cx="600.161" cy="-659.417" rx="4" ry="4"/>
<polygon fill="#7761a6" stroke="#7761a6" points="610.541,-524.472 615.795,-514.847 610.925,-519.487 611.308,-514.502 611.308,-514.502 611.308,-514.502 610.925,-519.487 606.821,-514.156 610.541,-524.472 610.541,-524.472"/>
</g>
<!-- City -->
<g id="node4" class="node"><title>City</title>
<path fill="none" stroke="black" d="M285.572,-414.5C285.572,-414.5 394.583,-414.5 394.583,-414.5 400.583,-414.5 406.583,-420.5 406.583,-426.5 406.583,-426.5 406.583,-502.5 406.583,-502.5 406.583,-508.5 400.583,-514.5 394.583,-514.5 394.583,-514.5 285.572,-514.5 285.572,-514.5 279.572,-514.5 273.572,-508.5 273.572,-502.5 273.572,-502.5 273.572,-426.5 273.572,-426.5 273.572,-420.5 279.572,-414.5 285.572,-414.5"/>
<text text-anchor="middle" x="340.078" y="-499.3" font-family="Times,serif" font-size="14.00">City</text>
<polyline fill="none" stroke="black" points="273.572,-492.5 406.583,-492.5 "/>
<text text-anchor="start" x="281.572" y="-477.3" font-family="Times,serif" font-size="14.00">id :INTEGER</text>
<text text-anchor="start" x="281.572" y="-463.3" font-family="Times,serif" font-size="14.00">name :varchar</text>
<text text-anchor="start" x="281.572" y="-449.3" font-family="Times,serif" font-size="14.00">province_id :integer</text>
<text text-anchor="start" x="281.572" y="-435.3" font-family="Times,serif" font-size="14.00">created_at :datetime</text>
<text text-anchor="start" x="281.572" y="-421.3" font-family="Times,serif" font-size="14.00">updated_at :datetime</text>
</g>
<!-- City&#45;&gt;Address -->
<g id="edge4" class="edge"><title>City&#45;&gt;Address</title>
<path fill="none" stroke="#bc155f" d="M316.323,-406.989C304.934,-379.895 291.093,-346.967 278.65,-317.367"/>
<ellipse fill="none" stroke="#bc155f" cx="317.914" cy="-410.774" rx="4.00002" ry="4.00002"/>
<polygon fill="#bc155f" stroke="#bc155f" points="278.539,-317.104 278.813,-306.141 276.602,-312.494 274.664,-307.885 274.664,-307.885 274.664,-307.885 276.602,-312.494 270.516,-309.629 278.539,-317.104 278.539,-317.104"/>
</g>
<!-- Country -->
<g id="node5" class="node"><title>Country</title>
<path fill="none" stroke="black" d="M503.572,-884.5C503.572,-884.5 612.583,-884.5 612.583,-884.5 618.583,-884.5 624.583,-890.5 624.583,-896.5 624.583,-896.5 624.583,-958.5 624.583,-958.5 624.583,-964.5 618.583,-970.5 612.583,-970.5 612.583,-970.5 503.572,-970.5 503.572,-970.5 497.572,-970.5 491.572,-964.5 491.572,-958.5 491.572,-958.5 491.572,-896.5 491.572,-896.5 491.572,-890.5 497.572,-884.5 503.572,-884.5"/>
<text text-anchor="middle" x="558.078" y="-955.3" font-family="Times,serif" font-size="14.00">Country</text>
<polyline fill="none" stroke="black" points="491.572,-948.5 624.583,-948.5 "/>
<text text-anchor="start" x="499.572" y="-933.3" font-family="Times,serif" font-size="14.00">id :INTEGER</text>
<text text-anchor="start" x="499.572" y="-919.3" font-family="Times,serif" font-size="14.00">name :varchar</text>
<text text-anchor="start" x="499.572" y="-905.3" font-family="Times,serif" font-size="14.00">created_at :datetime</text>
<text text-anchor="start" x="499.572" y="-891.3" font-family="Times,serif" font-size="14.00">updated_at :datetime</text>
</g>
<!-- Country&#45;&gt;Brand -->
<g id="edge7" class="edge"><title>Country&#45;&gt;Brand</title>
<path fill="none" stroke="#7ba36d" d="M567.06,-876.388C572.57,-845.65 579.653,-806.13 585.443,-773.832"/>
<ellipse fill="none" stroke="#7ba36d" cx="566.336" cy="-880.425" rx="4.00001" ry="4.00001"/>
<polygon fill="#7ba36d" stroke="#7ba36d" points="585.509,-773.463 591.702,-764.414 586.391,-768.541 587.273,-763.62 587.273,-763.62 587.273,-763.62 586.391,-768.541 582.844,-762.826 585.509,-773.463 585.509,-773.463"/>
</g>
<!-- Province -->
<g id="node12" class="node"><title>Province</title>
<path fill="none" stroke="black" d="M351.572,-663.5C351.572,-663.5 460.583,-663.5 460.583,-663.5 466.583,-663.5 472.583,-669.5 472.583,-675.5 472.583,-675.5 472.583,-751.5 472.583,-751.5 472.583,-757.5 466.583,-763.5 460.583,-763.5 460.583,-763.5 351.572,-763.5 351.572,-763.5 345.572,-763.5 339.572,-757.5 339.572,-751.5 339.572,-751.5 339.572,-675.5 339.572,-675.5 339.572,-669.5 345.572,-663.5 351.572,-663.5"/>
<text text-anchor="middle" x="406.078" y="-748.3" font-family="Times,serif" font-size="14.00">Province</text>
<polyline fill="none" stroke="black" points="339.572,-741.5 472.583,-741.5 "/>
<text text-anchor="start" x="347.572" y="-726.3" font-family="Times,serif" font-size="14.00">id :INTEGER</text>
<text text-anchor="start" x="347.572" y="-712.3" font-family="Times,serif" font-size="14.00">country_id :integer</text>
<text text-anchor="start" x="347.572" y="-698.3" font-family="Times,serif" font-size="14.00">name :varchar</text>
<text text-anchor="start" x="347.572" y="-684.3" font-family="Times,serif" font-size="14.00">created_at :datetime</text>
<text text-anchor="start" x="347.572" y="-670.3" font-family="Times,serif" font-size="14.00">updated_at :datetime</text>
</g>
<!-- Country&#45;&gt;Province -->
<g id="edge6" class="edge"><title>Country&#45;&gt;Province</title>
<path fill="none" stroke="#e5b465" d="M523.072,-877.677C500.456,-846.134 470.929,-804.951 447.197,-771.85"/>
<ellipse fill="none" stroke="#e5b465" cx="525.535" cy="-881.111" rx="4.00002" ry="4.00002"/>
<polygon fill="#e5b465" stroke="#e5b465" points="447.123,-771.747 444.953,-760.998 444.209,-767.683 441.296,-763.62 441.296,-763.62 441.296,-763.62 444.209,-767.683 437.638,-766.242 447.123,-771.747 447.123,-771.747"/>
</g>
<!-- DeviceLocation -->
<g id="node6" class="node"><title>DeviceLocation</title>
<path fill="none" stroke="black" d="M808.303,-393.5C808.303,-393.5 953.852,-393.5 953.852,-393.5 959.852,-393.5 965.852,-399.5 965.852,-405.5 965.852,-405.5 965.852,-523.5 965.852,-523.5 965.852,-529.5 959.852,-535.5 953.852,-535.5 953.852,-535.5 808.303,-535.5 808.303,-535.5 802.303,-535.5 796.303,-529.5 796.303,-523.5 796.303,-523.5 796.303,-405.5 796.303,-405.5 796.303,-399.5 802.303,-393.5 808.303,-393.5"/>
<text text-anchor="middle" x="881.078" y="-520.3" font-family="Times,serif" font-size="14.00">DeviceLocation</text>
<polyline fill="none" stroke="black" points="796.303,-513.5 965.852,-513.5 "/>
<text text-anchor="start" x="804.303" y="-498.3" font-family="Times,serif" font-size="14.00">driver_id :integer</text>
<text text-anchor="start" x="804.303" y="-484.3" font-family="Times,serif" font-size="14.00">tracking_device_id :integer</text>
<text text-anchor="start" x="804.303" y="-470.3" font-family="Times,serif" font-size="14.00">period :varchar</text>
<text text-anchor="start" x="804.303" y="-456.3" font-family="Times,serif" font-size="14.00">latitude :float</text>
<text text-anchor="start" x="804.303" y="-442.3" font-family="Times,serif" font-size="14.00">longitude :float</text>
<text text-anchor="start" x="804.303" y="-428.3" font-family="Times,serif" font-size="14.00">created_at :datetime</text>
<text text-anchor="start" x="804.303" y="-414.3" font-family="Times,serif" font-size="14.00">updated_at :datetime</text>
<text text-anchor="start" x="804.303" y="-400.3" font-family="Times,serif" font-size="14.00">id :INTEGER</text>
</g>
<!-- DeviceModel -->
<g id="node7" class="node"><title>DeviceModel</title>
<path fill="none" stroke="black" d="M807.155,-842.5C807.155,-842.5 927,-842.5 927,-842.5 933,-842.5 939,-848.5 939,-854.5 939,-854.5 939,-1000.5 939,-1000.5 939,-1006.5 933,-1012.5 927,-1012.5 927,-1012.5 807.155,-1012.5 807.155,-1012.5 801.155,-1012.5 795.155,-1006.5 795.155,-1000.5 795.155,-1000.5 795.155,-854.5 795.155,-854.5 795.155,-848.5 801.155,-842.5 807.155,-842.5"/>
<text text-anchor="middle" x="867.078" y="-997.3" font-family="Times,serif" font-size="14.00">DeviceModel</text>
<polyline fill="none" stroke="black" points="795.155,-990.5 939,-990.5 "/>
<text text-anchor="start" x="803.155" y="-975.3" font-family="Times,serif" font-size="14.00">updated_at :datetime</text>
<text text-anchor="start" x="803.155" y="-961.3" font-family="Times,serif" font-size="14.00">gps :varchar</text>
<text text-anchor="start" x="803.155" y="-947.3" font-family="Times,serif" font-size="14.00">obdi :varchar</text>
<text text-anchor="start" x="803.155" y="-933.3" font-family="Times,serif" font-size="14.00">accelerometer :varchar</text>
<text text-anchor="start" x="803.155" y="-919.3" font-family="Times,serif" font-size="14.00">camera :varchar</text>
<text text-anchor="start" x="803.155" y="-905.3" font-family="Times,serif" font-size="14.00">computer :varchar</text>
<text text-anchor="start" x="803.155" y="-891.3" font-family="Times,serif" font-size="14.00">name :varchar</text>
<text text-anchor="start" x="803.155" y="-877.3" font-family="Times,serif" font-size="14.00">manufacturer :varchar</text>
<text text-anchor="start" x="803.155" y="-863.3" font-family="Times,serif" font-size="14.00">created_at :datetime</text>
<text text-anchor="start" x="803.155" y="-849.3" font-family="Times,serif" font-size="14.00">id :INTEGER</text>
</g>
<!-- TrackingDevice -->
<g id="node13" class="node"><title>TrackingDevice</title>
<path fill="none" stroke="black" d="M853.741,-663.5C853.741,-663.5 988.414,-663.5 988.414,-663.5 994.414,-663.5 1000.41,-669.5 1000.41,-675.5 1000.41,-675.5 1000.41,-751.5 1000.41,-751.5 1000.41,-757.5 994.414,-763.5 988.414,-763.5 988.414,-763.5 853.741,-763.5 853.741,-763.5 847.741,-763.5 841.741,-757.5 841.741,-751.5 841.741,-751.5 841.741,-675.5 841.741,-675.5 841.741,-669.5 847.741,-663.5 853.741,-663.5"/>
<text text-anchor="middle" x="921.078" y="-748.3" font-family="Times,serif" font-size="14.00">TrackingDevice</text>
<polyline fill="none" stroke="black" points="841.741,-741.5 1000.41,-741.5 "/>
<text text-anchor="start" x="849.741" y="-726.3" font-family="Times,serif" font-size="14.00">id :INTEGER</text>
<text text-anchor="start" x="849.741" y="-712.3" font-family="Times,serif" font-size="14.00">serial_no :varchar</text>
<text text-anchor="start" x="849.741" y="-698.3" font-family="Times,serif" font-size="14.00">device_model_id :integer</text>
<text text-anchor="start" x="849.741" y="-684.3" font-family="Times,serif" font-size="14.00">created_at :datetime</text>
<text text-anchor="start" x="849.741" y="-670.3" font-family="Times,serif" font-size="14.00">updated_at :datetime</text>
</g>
<!-- DeviceModel&#45;&gt;TrackingDevice -->
<g id="edge10" class="edge"><title>DeviceModel&#45;&gt;TrackingDevice</title>
<path fill="none" stroke="#9c5962" d="M890.503,-834.535C895.766,-813.872 901.213,-792.485 906.027,-773.589"/>
<ellipse fill="none" stroke="#9c5962" cx="889.485" cy="-838.531" rx="4.00001" ry="4.00001"/>
<polygon fill="#9c5962" stroke="#9c5962" points="906.087,-773.352 912.916,-764.772 907.321,-768.506 908.555,-763.661 908.555,-763.661 908.555,-763.661 907.321,-768.506 904.195,-762.55 906.087,-773.352 906.087,-773.352"/>
</g>
<!-- DeviceTrack -->
<g id="node8" class="node"><title>DeviceTrack</title>
<path fill="none" stroke="black" d="M1037.42,-344.5C1037.42,-344.5 1190.73,-344.5 1190.73,-344.5 1196.73,-344.5 1202.73,-350.5 1202.73,-356.5 1202.73,-356.5 1202.73,-572.5 1202.73,-572.5 1202.73,-578.5 1196.73,-584.5 1190.73,-584.5 1190.73,-584.5 1037.42,-584.5 1037.42,-584.5 1031.42,-584.5 1025.42,-578.5 1025.42,-572.5 1025.42,-572.5 1025.42,-356.5 1025.42,-356.5 1025.42,-350.5 1031.42,-344.5 1037.42,-344.5"/>
<text text-anchor="middle" x="1114.08" y="-569.3" font-family="Times,serif" font-size="14.00">DeviceTrack</text>
<polyline fill="none" stroke="black" points="1025.42,-562.5 1202.73,-562.5 "/>
<text text-anchor="start" x="1033.42" y="-547.3" font-family="Times,serif" font-size="14.00">driver_id :integer</text>
<text text-anchor="start" x="1033.42" y="-533.3" font-family="Times,serif" font-size="14.00">tracking_device_id :integer</text>
<text text-anchor="start" x="1033.42" y="-519.3" font-family="Times,serif" font-size="14.00">period :varchar</text>
<text text-anchor="start" x="1033.42" y="-505.3" font-family="Times,serif" font-size="14.00">speed_max :integer</text>
<text text-anchor="start" x="1033.42" y="-491.3" font-family="Times,serif" font-size="14.00">speed_p75 :integer</text>
<text text-anchor="start" x="1033.42" y="-477.3" font-family="Times,serif" font-size="14.00">speed_avg :integer</text>
<text text-anchor="start" x="1033.42" y="-463.3" font-family="Times,serif" font-size="14.00">speed_p25 :integer</text>
<text text-anchor="start" x="1033.42" y="-449.3" font-family="Times,serif" font-size="14.00">speed_min :integer</text>
<text text-anchor="start" x="1033.42" y="-435.3" font-family="Times,serif" font-size="14.00">acceleration_up :float</text>
<text text-anchor="start" x="1033.42" y="-421.3" font-family="Times,serif" font-size="14.00">acceleration_down :float</text>
<text text-anchor="start" x="1033.42" y="-407.3" font-family="Times,serif" font-size="14.00">acceleration_forward :float</text>
<text text-anchor="start" x="1033.42" y="-393.3" font-family="Times,serif" font-size="14.00">acceleration_backward :float</text>
<text text-anchor="start" x="1033.42" y="-379.3" font-family="Times,serif" font-size="14.00">created_at :datetime</text>
<text text-anchor="start" x="1033.42" y="-365.3" font-family="Times,serif" font-size="14.00">updated_at :datetime</text>
<text text-anchor="start" x="1033.42" y="-351.3" font-family="Times,serif" font-size="14.00">id :INTEGER</text>
</g>
<!-- Driver -->
<g id="node9" class="node"><title>Driver</title>
<path fill="none" stroke="black" d="M1007.57,-870.5C1007.57,-870.5 1116.58,-870.5 1116.58,-870.5 1122.58,-870.5 1128.58,-876.5 1128.58,-882.5 1128.58,-882.5 1128.58,-972.5 1128.58,-972.5 1128.58,-978.5 1122.58,-984.5 1116.58,-984.5 1116.58,-984.5 1007.57,-984.5 1007.57,-984.5 1001.57,-984.5 995.572,-978.5 995.572,-972.5 995.572,-972.5 995.572,-882.5 995.572,-882.5 995.572,-876.5 1001.57,-870.5 1007.57,-870.5"/>
<text text-anchor="middle" x="1062.08" y="-969.3" font-family="Times,serif" font-size="14.00">Driver</text>
<polyline fill="none" stroke="black" points="995.572,-962.5 1128.58,-962.5 "/>
<text text-anchor="start" x="1003.57" y="-947.3" font-family="Times,serif" font-size="14.00">id :INTEGER</text>
<text text-anchor="start" x="1003.57" y="-933.3" font-family="Times,serif" font-size="14.00">name :varchar</text>
<text text-anchor="start" x="1003.57" y="-919.3" font-family="Times,serif" font-size="14.00">created_at :datetime</text>
<text text-anchor="start" x="1003.57" y="-905.3" font-family="Times,serif" font-size="14.00">updated_at :datetime</text>
<text text-anchor="start" x="1003.57" y="-891.3" font-family="Times,serif" font-size="14.00">user_id :integer</text>
<text text-anchor="start" x="1003.57" y="-877.3" font-family="Times,serif" font-size="14.00">passphrase :varchar</text>
</g>
<!-- Version -->
<g id="node16" class="node"><title>Version</title>
<path fill="none" stroke="black" d="M560.572,-186.5C560.572,-186.5 669.583,-186.5 669.583,-186.5 675.583,-186.5 681.583,-192.5 681.583,-198.5 681.583,-198.5 681.583,-274.5 681.583,-274.5 681.583,-280.5 675.583,-286.5 669.583,-286.5 669.583,-286.5 560.572,-286.5 560.572,-286.5 554.572,-286.5 548.572,-280.5 548.572,-274.5 548.572,-274.5 548.572,-198.5 548.572,-198.5 548.572,-192.5 554.572,-186.5 560.572,-186.5"/>
<text text-anchor="middle" x="615.078" y="-271.3" font-family="Times,serif" font-size="14.00">Version</text>
<polyline fill="none" stroke="black" points="548.572,-264.5 681.583,-264.5 "/>
<text text-anchor="start" x="556.572" y="-249.3" font-family="Times,serif" font-size="14.00">id :INTEGER</text>
<text text-anchor="start" x="556.572" y="-235.3" font-family="Times,serif" font-size="14.00">name :varchar</text>
<text text-anchor="start" x="556.572" y="-221.3" font-family="Times,serif" font-size="14.00">model_id :integer</text>
<text text-anchor="start" x="556.572" y="-207.3" font-family="Times,serif" font-size="14.00">created_at :datetime</text>
<text text-anchor="start" x="556.572" y="-193.3" font-family="Times,serif" font-size="14.00">updated_at :datetime</text>
</g>
<!-- Model&#45;&gt;Version -->
<g id="edge14" class="edge"><title>Model&#45;&gt;Version</title>
<path fill="none" stroke="#c7c258" d="M615.078,-406.292C615.078,-372.896 615.078,-330.821 615.078,-297.033"/>
<ellipse fill="none" stroke="#c7c258" cx="615.078" cy="-410.461" rx="4" ry="4"/>
<polygon fill="#c7c258" stroke="#c7c258" points="615.078,-296.833 619.578,-286.833 615.078,-291.833 615.078,-286.833 615.078,-286.833 615.078,-286.833 615.078,-291.833 610.578,-286.833 615.078,-296.833 615.078,-296.833"/>
</g>
<!-- Price -->
<g id="node11" class="node"><title>Price</title>
<path fill="none" stroke="black" d="M617.572,-0.5C617.572,-0.5 726.583,-0.5 726.583,-0.5 732.583,-0.5 738.583,-6.5 738.583,-12.5 738.583,-12.5 738.583,-116.5 738.583,-116.5 738.583,-122.5 732.583,-128.5 726.583,-128.5 726.583,-128.5 617.572,-128.5 617.572,-128.5 611.572,-128.5 605.572,-122.5 605.572,-116.5 605.572,-116.5 605.572,-12.5 605.572,-12.5 605.572,-6.5 611.572,-0.5 617.572,-0.5"/>
<text text-anchor="middle" x="672.078" y="-113.3" font-family="Times,serif" font-size="14.00">Price</text>
<polyline fill="none" stroke="black" points="605.572,-106.5 738.583,-106.5 "/>
<text text-anchor="start" x="613.572" y="-91.3" font-family="Times,serif" font-size="14.00">currency :varchar</text>
<text text-anchor="start" x="613.572" y="-77.3" font-family="Times,serif" font-size="14.00">version_id :integer</text>
<text text-anchor="start" x="613.572" y="-63.3" font-family="Times,serif" font-size="14.00">year :integer</text>
<text text-anchor="start" x="613.572" y="-49.3" font-family="Times,serif" font-size="14.00">id :INTEGER</text>
<text text-anchor="start" x="613.572" y="-35.3" font-family="Times,serif" font-size="14.00">price :integer</text>
<text text-anchor="start" x="613.572" y="-21.3" font-family="Times,serif" font-size="14.00">created_at :datetime</text>
<text text-anchor="start" x="613.572" y="-7.3" font-family="Times,serif" font-size="14.00">updated_at :datetime</text>
</g>
<!-- Province&#45;&gt;City -->
<g id="edge17" class="edge"><title>Province&#45;&gt;City</title>
<path fill="none" stroke="#2f924b" d="M390.879,-655.622C380.368,-616.284 366.418,-564.077 355.796,-524.325"/>
<ellipse fill="none" stroke="#2f924b" cx="391.927" cy="-659.541" rx="4.00001" ry="4.00001"/>
<polygon fill="#2f924b" stroke="#2f924b" points="355.753,-524.163 357.519,-513.34 354.462,-519.332 353.171,-514.502 353.171,-514.502 353.171,-514.502 354.462,-519.332 348.824,-515.663 355.753,-524.163 355.753,-524.163"/>
</g>
<!-- TrackingDevice&#45;&gt;DeviceLocation -->
<g id="edge20" class="edge"><title>TrackingDevice&#45;&gt;DeviceLocation</title>
<path fill="none" stroke="#69fc21" d="M911.845,-655.492C906.559,-622.847 899.842,-581.371 894.034,-545.505"/>
<ellipse fill="none" stroke="#69fc21" cx="912.488" cy="-659.457" rx="4.00001" ry="4.00001"/>
<polygon fill="#69fc21" stroke="#69fc21" points="894.02,-545.421 896.864,-534.831 893.221,-540.486 892.422,-535.55 892.422,-535.55 892.422,-535.55 893.221,-540.486 887.98,-536.269 894.02,-545.421 894.02,-545.421"/>
</g>
<!-- TrackingDevice&#45;&gt;DeviceTrack -->
<g id="edge19" class="edge"><title>TrackingDevice&#45;&gt;DeviceTrack</title>
<path fill="none" stroke="#c0cf93" d="M964.43,-657.018C980.715,-636.176 999.935,-611.579 1019.08,-587.082"/>
<ellipse fill="none" stroke="#c0cf93" cx="961.902" cy="-660.254" rx="4.00002" ry="4.00002"/>
<polygon fill="#c0cf93" stroke="#c0cf93" points="1019.13,-587.017 1028.83,-581.908 1022.21,-583.077 1025.28,-579.137 1025.28,-579.137 1025.28,-579.137 1022.21,-583.077 1021.74,-576.367 1019.13,-587.017 1019.13,-587.017"/>
</g>
<!-- User -->
<g id="node14" class="node"><title>User</title>
<path fill="none" stroke="black" d="M153.738,-849.5C153.738,-849.5 288.417,-849.5 288.417,-849.5 294.417,-849.5 300.417,-855.5 300.417,-861.5 300.417,-861.5 300.417,-993.5 300.417,-993.5 300.417,-999.5 294.417,-1005.5 288.417,-1005.5 288.417,-1005.5 153.738,-1005.5 153.738,-1005.5 147.738,-1005.5 141.738,-999.5 141.738,-993.5 141.738,-993.5 141.738,-861.5 141.738,-861.5 141.738,-855.5 147.738,-849.5 153.738,-849.5"/>
<text text-anchor="middle" x="221.078" y="-990.3" font-family="Times,serif" font-size="14.00">User</text>
<polyline fill="none" stroke="black" points="141.738,-983.5 300.417,-983.5 "/>
<text text-anchor="start" x="149.738" y="-968.3" font-family="Times,serif" font-size="14.00">updated_at :datetime</text>
<text text-anchor="start" x="149.738" y="-954.3" font-family="Times,serif" font-size="14.00">country_id :integer</text>
<text text-anchor="start" x="149.738" y="-940.3" font-family="Times,serif" font-size="14.00">username :varchar</text>
<text text-anchor="start" x="149.738" y="-926.3" font-family="Times,serif" font-size="14.00">email :varchar</text>
<text text-anchor="start" x="149.738" y="-912.3" font-family="Times,serif" font-size="14.00">first_name :varchar</text>
<text text-anchor="start" x="149.738" y="-898.3" font-family="Times,serif" font-size="14.00">last_name :varchar</text>
<text text-anchor="start" x="149.738" y="-884.3" font-family="Times,serif" font-size="14.00">password_digest :varchar</text>
<text text-anchor="start" x="149.738" y="-870.3" font-family="Times,serif" font-size="14.00">created_at :datetime</text>
<text text-anchor="start" x="149.738" y="-856.3" font-family="Times,serif" font-size="14.00">id :INTEGER</text>
</g>
<!-- User&#45;&gt;Address -->
<g id="edge22" class="edge"><title>User&#45;&gt;Address</title>
<path fill="none" stroke="#dc5177" d="M224.702,-841.212C225.18,-829.385 225.651,-817.39 226.078,-806 232.601,-631.833 239.16,-427.608 242.606,-317.551"/>
<ellipse fill="none" stroke="#dc5177" cx="224.533" cy="-845.368" rx="4" ry="4"/>
<polygon fill="#dc5177" stroke="#dc5177" points="242.606,-317.518 247.417,-307.663 242.763,-312.52 242.919,-307.523 242.919,-307.523 242.919,-307.523 242.763,-312.52 238.421,-307.382 242.606,-317.518 242.606,-317.518"/>
</g>
<!-- Vehicle -->
<g id="node15" class="node"><title>Vehicle</title>
<path fill="none" stroke="black" d="M59.3031,-621.5C59.3031,-621.5 204.852,-621.5 204.852,-621.5 210.852,-621.5 216.852,-627.5 216.852,-633.5 216.852,-633.5 216.852,-793.5 216.852,-793.5 216.852,-799.5 210.852,-805.5 204.852,-805.5 204.852,-805.5 59.3031,-805.5 59.3031,-805.5 53.3031,-805.5 47.3031,-799.5 47.3031,-793.5 47.3031,-793.5 47.3031,-633.5 47.3031,-633.5 47.3031,-627.5 53.3031,-621.5 59.3031,-621.5"/>
<text text-anchor="middle" x="132.078" y="-790.3" font-family="Times,serif" font-size="14.00">Vehicle</text>
<polyline fill="none" stroke="black" points="47.3031,-783.5 216.852,-783.5 "/>
<text text-anchor="start" x="55.3031" y="-768.3" font-family="Times,serif" font-size="14.00">updated_at :datetime</text>
<text text-anchor="start" x="55.3031" y="-754.3" font-family="Times,serif" font-size="14.00">name :varchar</text>
<text text-anchor="start" x="55.3031" y="-740.3" font-family="Times,serif" font-size="14.00">price_id :integer</text>
<text text-anchor="start" x="55.3031" y="-726.3" font-family="Times,serif" font-size="14.00">user_id :integer</text>
<text text-anchor="start" x="55.3031" y="-712.3" font-family="Times,serif" font-size="14.00">country_id :integer</text>
<text text-anchor="start" x="55.3031" y="-698.3" font-family="Times,serif" font-size="14.00">tracking_device_id :integer</text>
<text text-anchor="start" x="55.3031" y="-684.3" font-family="Times,serif" font-size="14.00">chasis_no :varchar</text>
<text text-anchor="start" x="55.3031" y="-670.3" font-family="Times,serif" font-size="14.00">engine_no :varchar</text>
<text text-anchor="start" x="55.3031" y="-656.3" font-family="Times,serif" font-size="14.00">plate_no :varchar</text>
<text text-anchor="start" x="55.3031" y="-642.3" font-family="Times,serif" font-size="14.00">created_at :datetime</text>
<text text-anchor="start" x="55.3031" y="-628.3" font-family="Times,serif" font-size="14.00">id :INTEGER</text>
</g>
<!-- User&#45;&gt;Vehicle -->
<g id="edge23" class="edge"><title>User&#45;&gt;Vehicle</title>
<path fill="none" stroke="#d14ce6" d="M185.594,-841.977C181.87,-833.108 178.059,-824.029 174.27,-815.003"/>
<ellipse fill="none" stroke="#d14ce6" cx="187.146" cy="-845.675" rx="4.00002" ry="4.00002"/>
<polygon fill="#d14ce6" stroke="#d14ce6" points="174.205,-814.848 174.483,-803.886 172.269,-810.238 170.334,-805.628 170.334,-805.628 170.334,-805.628 172.269,-810.238 166.185,-807.37 174.205,-814.848 174.205,-814.848"/>
</g>
<!-- Version&#45;&gt;Price -->
<g id="edge26" class="edge"><title>Version&#45;&gt;Price</title>
<path fill="none" stroke="#db3075" d="M634.165,-178.572C638.501,-165.64 643.165,-151.731 647.688,-138.242"/>
<ellipse fill="none" stroke="#db3075" cx="632.836" cy="-182.536" rx="4.00001" ry="4.00001"/>
<polygon fill="#db3075" stroke="#db3075" points="647.77,-137.996 655.216,-129.945 649.36,-133.255 650.949,-128.515 650.949,-128.515 650.949,-128.515 649.36,-133.255 646.682,-127.084 647.77,-137.996 647.77,-137.996"/>
</g>
<!-- WebConsole::ConsoleSession -->
<g id="node17" class="node"><title>WebConsole::ConsoleSession</title>
<polygon fill="none" stroke="black" points="1185.25,-905.5 1185.25,-949.5 1368.91,-949.5 1368.91,-905.5 1185.25,-905.5"/>
<text text-anchor="middle" x="1277.08" y="-934.3" font-family="Times,serif" font-size="14.00">WebConsole::ConsoleSession</text>
<polyline fill="none" stroke="black" points="1185.25,-927.5 1368.91,-927.5 "/>
<text text-anchor="middle" x="1277.08" y="-912.3" font-family="Times,serif" font-size="14.00"> </text>
</g>
<!-- ActiveRecord::Base -->
<g id="node18" class="node"><title>ActiveRecord::Base</title>
<ellipse fill="none" stroke="black" cx="653.078" cy="-1085.5" rx="81.1422" ry="18"/>
<text text-anchor="middle" x="653.078" y="-1081.3" font-family="Times,serif" font-size="14.00">ActiveRecord::Base</text>
</g>
<!-- ActiveRecord::Base&#45;&gt;Address -->
<g id="edge1" class="edge"><title>ActiveRecord::Base&#45;&gt;Address</title>
<path fill="none" stroke="black" d="M620.497,-1068.91C603.725,-1061.59 582.722,-1053.51 563.078,-1049 460.121,-1025.35 169.701,-1081.26 89.0776,-1013 -120.29,-835.75 92.0474,-462.962 195.468,-307.697"/>
</g>
<!-- ActiveRecord::Base&#45;&gt;Brand -->
<g id="edge3" class="edge"><title>ActiveRecord::Base&#45;&gt;Brand</title>
<path fill="none" stroke="black" d="M652.973,-1067.29C652.461,-1027.35 649.601,-925.45 634.078,-842 629.177,-815.659 620.916,-787.011 613.345,-763.555"/>
</g>
<!-- ActiveRecord::Base&#45;&gt;City -->
<g id="edge5" class="edge"><title>ActiveRecord::Base&#45;&gt;City</title>
<path fill="none" stroke="black" d="M618.083,-1069.11C601.619,-1062.28 581.578,-1054.55 563.078,-1049 488.69,-1026.67 449.24,-1065.58 392.078,-1013 262.254,-893.59 324.415,-797.297 330.078,-621 331.22,-585.445 333.827,-545.387 336.093,-514.834"/>
</g>
<!-- ActiveRecord::Base&#45;&gt;Country -->
<g id="edge8" class="edge"><title>ActiveRecord::Base&#45;&gt;Country</title>
<path fill="none" stroke="black" d="M642.73,-1067.51C628.688,-1044.45 603.129,-1002.48 583.757,-970.668"/>
</g>
<!-- ActiveRecord::Base&#45;&gt;DeviceLocation -->
<g id="edge9" class="edge"><title>ActiveRecord::Base&#45;&gt;DeviceLocation</title>
<path fill="none" stroke="black" d="M682.16,-1068.59C702.292,-1056.07 728.07,-1036.8 743.078,-1013 754.995,-994.099 827.278,-642.579 833.078,-621 840.63,-592.896 849.876,-562.235 858.229,-535.623"/>
</g>
<!-- ActiveRecord::Base&#45;&gt;DeviceModel -->
<g id="edge11" class="edge"><title>ActiveRecord::Base&#45;&gt;DeviceModel</title>
<path fill="none" stroke="black" d="M686.374,-1068.99C713.115,-1055.82 751.031,-1035.51 781.078,-1013 785.768,-1009.49 790.461,-1005.73 795.1,-1001.83"/>
</g>
<!-- ActiveRecord::Base&#45;&gt;DeviceTrack -->
<g id="edge12" class="edge"><title>ActiveRecord::Base&#45;&gt;DeviceTrack</title>
<path fill="none" stroke="black" d="M734.447,-1084.78C858.742,-1083.28 1086.91,-1072.27 1138.08,-1013 1191.43,-951.202 1162.46,-726.19 1137.57,-584.58"/>
</g>
<!-- ActiveRecord::Base&#45;&gt;Driver -->
<g id="edge13" class="edge"><title>ActiveRecord::Base&#45;&gt;Driver</title>
<path fill="none" stroke="black" d="M731.18,-1080.32C800.649,-1073.72 903.025,-1056.72 981.078,-1013 994.198,-1005.65 1006.5,-995.49 1017.36,-984.757"/>
</g>
<!-- ActiveRecord::Base&#45;&gt;Model -->
<g id="edge15" class="edge"><title>ActiveRecord::Base&#45;&gt;Model</title>
<path fill="none" stroke="black" d="M656.393,-1067.49C667.732,-1006.46 702.622,-793.074 672.078,-621 665.545,-584.196 650.948,-544.672 638.162,-514.681"/>
</g>
<!-- ActiveRecord::Base&#45;&gt;Price -->
<g id="edge16" class="edge"><title>ActiveRecord::Base&#45;&gt;Price</title>
<path fill="none" stroke="black" d="M663.649,-1067.55C671.919,-1053.48 683.002,-1032.65 689.078,-1013 728.611,-885.119 729.078,-848.353 729.078,-714.5 729.078,-714.5 729.078,-714.5 729.078,-463.5 729.078,-344.138 703.645,-206.656 686.756,-128.518"/>
</g>
<!-- ActiveRecord::Base&#45;&gt;Province -->
<g id="edge18" class="edge"><title>ActiveRecord::Base&#45;&gt;Province</title>
<path fill="none" stroke="black" d="M616.514,-1069.41C600.251,-1062.87 580.808,-1055.29 563.078,-1049 513,-1031.24 483.469,-1053.5 449.078,-1013 389.601,-942.957 391.464,-828.662 398.516,-763.707"/>
</g>
<!-- ActiveRecord::Base&#45;&gt;TrackingDevice -->
<g id="edge21" class="edge"><title>ActiveRecord::Base&#45;&gt;TrackingDevice</title>
<path fill="none" stroke="black" d="M725.387,-1077.12C803.624,-1067.47 920.873,-1047.59 948.078,-1013 1004.37,-941.428 971.086,-828.219 944.384,-763.744"/>
</g>
<!-- ActiveRecord::Base&#45;&gt;User -->
<g id="edge24" class="edge"><title>ActiveRecord::Base&#45;&gt;User</title>
<path fill="none" stroke="black" d="M619.09,-1068.93C602.502,-1061.89 582.071,-1054.05 563.078,-1049 455.008,-1020.29 415.218,-1060.68 314.078,-1013 309.441,-1010.81 304.871,-1008.32 300.396,-1005.58"/>
</g>
<!-- ActiveRecord::Base&#45;&gt;Vehicle -->
<g id="edge25" class="edge"><title>ActiveRecord::Base&#45;&gt;Vehicle</title>
<path fill="none" stroke="black" d="M620.482,-1068.97C603.707,-1061.67 582.704,-1053.59 563.078,-1049 516.391,-1038.09 165.594,-1048.23 133.078,-1013 82.8181,-958.54 88.3958,-871.782 103.112,-805.802"/>
</g>
<!-- ActiveRecord::Base&#45;&gt;Version -->
<g id="edge27" class="edge"><title>ActiveRecord::Base&#45;&gt;Version</title>
<path fill="none" stroke="black" d="M615.68,-1069.46C565.958,-1049.38 484.061,-1015.98 482.078,-1013 439.96,-949.738 477.749,-917.877 482.078,-842 494.765,-619.583 459.165,-551.952 539.078,-344 546.859,-323.751 559.411,-303.789 572.092,-286.717"/>
</g>
<!-- Object -->
<g id="node19" class="node"><title>Object</title>
<ellipse fill="none" stroke="black" cx="1277.08" cy="-1085.5" rx="33.8596" ry="18"/>
<text text-anchor="middle" x="1277.08" y="-1081.3" font-family="Times,serif" font-size="14.00">Object</text>
</g>
<!-- Object&#45;&gt;WebConsole::ConsoleSession -->
<g id="edge28" class="edge"><title>Object&#45;&gt;WebConsole::ConsoleSession</title>
<path fill="none" stroke="black" d="M1277.08,-1067.21C1277.08,-1038.41 1277.08,-980.725 1277.08,-949.588"/>
</g>
</g>
</svg>
