<?xml version="1.0" encoding="UTF-8" standalone="no"?>
<!DOCTYPE svg PUBLIC "-//W3C//DTD SVG 1.1//EN"
 "http://www.w3.org/Graphics/SVG/1.1/DTD/svg11.dtd">
<!-- Generated by graphviz version 2.38.0 (20140413.2041)
 -->
<!-- Title: models_diagram Pages: 1 -->
<svg width="1009pt" height="441pt"
 viewBox="0.00 0.00 1008.98 441.00" xmlns="http://www.w3.org/2000/svg" xmlns:xlink="http://www.w3.org/1999/xlink">
<g id="graph0" class="graph" transform="scale(1 1) rotate(0) translate(4 437)">
<title>models_diagram</title>
<polygon fill="none" stroke="none" points="-4,4 -4,-437 1004.98,-437 1004.98,4 -4,4"/>
<!-- _diagram_info -->
<g id="node1" class="node"><title>_diagram_info</title>
<text text-anchor="start" x="82.461" y="-418.6" font-family="Times,serif" font-size="13.00">Models diagram</text>
<text text-anchor="start" x="82.461" y="-405.6" font-family="Times,serif" font-size="13.00">Date: Jun 28 2016 &#45; 00:33</text>
<text text-anchor="start" x="82.461" y="-392.6" font-family="Times,serif" font-size="13.00">Migration version: 20160628021014</text>
<text text-anchor="start" x="82.461" y="-379.6" font-family="Times,serif" font-size="13.00">Generated by RailRoady 1.4.2</text>
<text text-anchor="start" x="82.461" y="-366.6" font-family="Times,serif" font-size="13.00">http://railroady.prestonlee.com</text>
</g>
<!-- Address -->
<g id="node2" class="node"><title>Address</title>
<ellipse fill="none" stroke="black" cx="118.149" cy="-90" rx="39.18" ry="18"/>
<text text-anchor="middle" x="118.149" y="-85.8" font-family="Times,serif" font-size="14.00">Address</text>
</g>
<!-- Brand -->
<g id="node3" class="node"><title>Brand</title>
<ellipse fill="none" stroke="black" cx="359.149" cy="-234" rx="31.9393" ry="18"/>
<text text-anchor="middle" x="359.149" y="-229.8" font-family="Times,serif" font-size="14.00">Brand</text>
</g>
<!-- Model -->
<g id="node10" class="node"><title>Model</title>
<ellipse fill="none" stroke="black" cx="376.149" cy="-162" rx="33.3925" ry="18"/>
<text text-anchor="middle" x="376.149" y="-157.8" font-family="Times,serif" font-size="14.00">Model</text>
</g>
<!-- Brand&#45;&gt;Model -->
<g id="edge2" class="edge"><title>Brand&#45;&gt;Model</title>
<path fill="none" stroke="#e13df7" d="M365.155,-208.267C366.56,-202.485 368.064,-196.291 369.494,-190.4"/>
<ellipse fill="none" stroke="#e13df7" cx="364.208" cy="-212.168" rx="4.00001" ry="4.00001"/>
<polygon fill="#e13df7" stroke="#e13df7" points="369.593,-189.993 376.326,-181.337 370.773,-185.134 371.953,-180.275 371.953,-180.275 371.953,-180.275 370.773,-185.134 367.58,-179.213 369.593,-189.993 369.593,-189.993"/>
</g>
<!-- City -->
<g id="node4" class="node"><title>City</title>
<ellipse fill="none" stroke="black" cx="173.149" cy="-162" rx="27" ry="18"/>
<text text-anchor="middle" x="173.149" y="-157.8" font-family="Times,serif" font-size="14.00">City</text>
</g>
<!-- City&#45;&gt;Address -->
<g id="edge4" class="edge"><title>City&#45;&gt;Address</title>
<path fill="none" stroke="#6e6db2" d="M156.096,-139.296C150.102,-131.667 143.33,-123.049 137.183,-115.226"/>
<ellipse fill="none" stroke="#6e6db2" cx="158.743" cy="-142.666" rx="4.00002" ry="4.00002"/>
<polygon fill="#6e6db2" stroke="#6e6db2" points="137.003,-114.997 134.364,-104.353 133.914,-111.065 130.825,-107.134 130.825,-107.134 130.825,-107.134 133.914,-111.065 127.287,-109.914 137.003,-114.997 137.003,-114.997"/>
</g>
<!-- Country -->
<g id="node5" class="node"><title>Country</title>
<ellipse fill="none" stroke="black" cx="314.149" cy="-306" rx="39.1887" ry="18"/>
<text text-anchor="middle" x="314.149" y="-301.8" font-family="Times,serif" font-size="14.00">Country</text>
</g>
<!-- Country&#45;&gt;Brand -->
<g id="edge7" class="edge"><title>Country&#45;&gt;Brand</title>
<path fill="none" stroke="#2deb6e" d="M329.239,-281.526C333.697,-274.592 338.591,-266.979 343.106,-259.955"/>
<ellipse fill="none" stroke="#2deb6e" cx="326.976" cy="-285.046" rx="4.00002" ry="4.00002"/>
<polygon fill="#2deb6e" stroke="#2deb6e" points="343.153,-259.882 352.346,-253.903 345.857,-255.676 348.561,-251.47 348.561,-251.47 348.561,-251.47 345.857,-255.676 344.776,-249.037 343.153,-259.882 343.153,-259.882"/>
</g>
<!-- Province -->
<g id="node12" class="node"><title>Province</title>
<ellipse fill="none" stroke="black" cx="229.149" cy="-234" rx="41.5852" ry="18"/>
<text text-anchor="middle" x="229.149" y="-229.8" font-family="Times,serif" font-size="14.00">Province</text>
</g>
<!-- Country&#45;&gt;Province -->
<g id="edge6" class="edge"><title>Country&#45;&gt;Province</title>
<path fill="none" stroke="#023ef8" d="M289.401,-284.619C278.746,-275.845 266.276,-265.575 255.454,-256.663"/>
<ellipse fill="none" stroke="#023ef8" cx="292.617" cy="-287.268" rx="4.00002" ry="4.00002"/>
<polygon fill="#023ef8" stroke="#023ef8" points="255.276,-256.516 250.417,-246.686 251.416,-253.338 247.556,-250.159 247.556,-250.159 247.556,-250.159 251.416,-253.338 244.696,-253.633 255.276,-256.516 255.276,-256.516"/>
</g>
<!-- DeviceLocation -->
<g id="node6" class="node"><title>DeviceLocation</title>
<ellipse fill="none" stroke="black" cx="590.149" cy="-162" rx="66.6579" ry="18"/>
<text text-anchor="middle" x="590.149" y="-157.8" font-family="Times,serif" font-size="14.00">DeviceLocation</text>
</g>
<!-- DeviceModel -->
<g id="node7" class="node"><title>DeviceModel</title>
<ellipse fill="none" stroke="black" cx="581.149" cy="-306" rx="58.4737" ry="18"/>
<text text-anchor="middle" x="581.149" y="-301.8" font-family="Times,serif" font-size="14.00">DeviceModel</text>
</g>
<!-- TrackingDevice -->
<g id="node13" class="node"><title>TrackingDevice</title>
<ellipse fill="none" stroke="black" cx="629.149" cy="-234" rx="66.5214" ry="18"/>
<text text-anchor="middle" x="629.149" y="-229.8" font-family="Times,serif" font-size="14.00">TrackingDevice</text>
</g>
<!-- DeviceModel&#45;&gt;TrackingDevice -->
<g id="edge10" class="edge"><title>DeviceModel&#45;&gt;TrackingDevice</title>
<path fill="none" stroke="#4e93df" d="M597.414,-281.28C602.083,-274.47 607.19,-267.023 611.916,-260.131"/>
<ellipse fill="none" stroke="#4e93df" cx="595.03" cy="-284.756" rx="4.00002" ry="4.00002"/>
<polygon fill="#4e93df" stroke="#4e93df" points="611.981,-260.036 621.348,-254.334 614.809,-255.913 617.636,-251.789 617.636,-251.789 617.636,-251.789 614.809,-255.913 613.925,-249.244 611.981,-260.036 611.981,-260.036"/>
</g>
<!-- DeviceTrack -->
<g id="node8" class="node"><title>DeviceTrack</title>
<ellipse fill="none" stroke="black" cx="759.149" cy="-162" rx="55.4196" ry="18"/>
<text text-anchor="middle" x="759.149" y="-157.8" font-family="Times,serif" font-size="14.00">DeviceTrack</text>
</g>
<!-- Driver -->
<g id="node9" class="node"><title>Driver</title>
<ellipse fill="none" stroke="black" cx="728.149" cy="-306" rx="33.3752" ry="18"/>
<text text-anchor="middle" x="728.149" y="-301.8" font-family="Times,serif" font-size="14.00">Driver</text>
</g>
<!-- Version -->
<g id="node16" class="node"><title>Version</title>
<ellipse fill="none" stroke="black" cx="376.149" cy="-90" rx="37.2507" ry="18"/>
<text text-anchor="middle" x="376.149" y="-85.8" font-family="Times,serif" font-size="14.00">Version</text>
</g>
<!-- Model&#45;&gt;Version -->
<g id="edge14" class="edge"><title>Model&#45;&gt;Version</title>
<path fill="none" stroke="#edf06a" d="M376.149,-135.64C376.149,-130.063 376.149,-124.132 376.149,-118.476"/>
<ellipse fill="none" stroke="#edf06a" cx="376.149" cy="-139.697" rx="4" ry="4"/>
<polygon fill="#edf06a" stroke="#edf06a" points="376.149,-118.104 380.649,-108.104 376.149,-113.104 376.149,-108.104 376.149,-108.104 376.149,-108.104 376.149,-113.104 371.649,-108.104 376.149,-118.104 376.149,-118.104"/>
</g>
<!-- Price -->
<g id="node11" class="node"><title>Price</title>
<ellipse fill="none" stroke="black" cx="416.149" cy="-18" rx="28.0565" ry="18"/>
<text text-anchor="middle" x="416.149" y="-13.8" font-family="Times,serif" font-size="14.00">Price</text>
</g>
<!-- Province&#45;&gt;City -->
<g id="edge17" class="edge"><title>Province&#45;&gt;City</title>
<path fill="none" stroke="#38b0a6" d="M211.117,-210.46C204.918,-202.711 197.968,-194.025 191.727,-186.222"/>
<ellipse fill="none" stroke="#38b0a6" cx="213.662" cy="-213.641" rx="4.00002" ry="4.00002"/>
<polygon fill="#38b0a6" stroke="#38b0a6" points="191.547,-185.998 188.814,-175.378 188.423,-182.093 185.3,-178.189 185.3,-178.189 185.3,-178.189 188.423,-182.093 181.786,-181 191.547,-185.998 191.547,-185.998"/>
</g>
<!-- TrackingDevice&#45;&gt;DeviceLocation -->
<g id="edge20" class="edge"><title>TrackingDevice&#45;&gt;DeviceLocation</title>
<path fill="none" stroke="#9a65c4" d="M615.681,-208.827C612.164,-202.515 608.357,-195.681 604.782,-189.266"/>
<ellipse fill="none" stroke="#9a65c4" cx="617.761" cy="-212.561" rx="4.00002" ry="4.00002"/>
<polygon fill="#9a65c4" stroke="#9a65c4" points="604.641,-189.011 603.705,-178.085 602.207,-184.643 599.774,-180.275 599.774,-180.275 599.774,-180.275 602.207,-184.643 595.842,-182.465 604.641,-189.011 604.641,-189.011"/>
</g>
<!-- TrackingDevice&#45;&gt;DeviceTrack -->
<g id="edge19" class="edge"><title>TrackingDevice&#45;&gt;DeviceTrack</title>
<path fill="none" stroke="#2802fe" d="M664.885,-213.757C682.804,-204.109 704.472,-192.441 722.513,-182.727"/>
<ellipse fill="none" stroke="#2802fe" cx="661.2" cy="-215.742" rx="4.00002" ry="4.00002"/>
<polygon fill="#2802fe" stroke="#2802fe" points="722.773,-182.587 733.711,-181.808 727.175,-180.216 731.578,-177.846 731.578,-177.846 731.578,-177.846 727.175,-180.216 729.444,-173.884 722.773,-182.587 722.773,-182.587"/>
</g>
<!-- User -->
<g id="node14" class="node"><title>User</title>
<ellipse fill="none" stroke="black" cx="106.149" cy="-306" rx="27" ry="18"/>
<text text-anchor="middle" x="106.149" y="-301.8" font-family="Times,serif" font-size="14.00">User</text>
</g>
<!-- User&#45;&gt;Address -->
<g id="edge22" class="edge"><title>User&#45;&gt;Address</title>
<path fill="none" stroke="#9d6f96" d="M107.569,-279.67C109.843,-239.116 114.282,-159.949 116.622,-118.227"/>
<ellipse fill="none" stroke="#9d6f96" cx="107.334" cy="-283.856" rx="4" ry="4"/>
<polygon fill="#9d6f96" stroke="#9d6f96" points="116.622,-118.217 121.675,-108.484 116.902,-113.225 117.182,-108.232 117.182,-108.232 117.182,-108.232 116.902,-113.225 112.689,-107.98 116.622,-118.217 116.622,-118.217"/>
</g>
<!-- Vehicle -->
<g id="node15" class="node"><title>Vehicle</title>
<ellipse fill="none" stroke="black" cx="53.1487" cy="-234" rx="36.7489" ry="18"/>
<text text-anchor="middle" x="53.1487" y="-229.8" font-family="Times,serif" font-size="14.00">Vehicle</text>
</g>
<!-- User&#45;&gt;Vehicle -->
<g id="edge23" class="edge"><title>User&#45;&gt;Vehicle</title>
<path fill="none" stroke="#ef534d" d="M89.5271,-283.047C83.9691,-275.706 77.7346,-267.472 72.018,-259.922"/>
<ellipse fill="none" stroke="#ef534d" cx="91.9717" cy="-286.276" rx="4.00002" ry="4.00002"/>
<polygon fill="#ef534d" stroke="#ef534d" points="71.6531,-259.44 69.2044,-248.751 68.6349,-255.453 65.6167,-251.467 65.6167,-251.467 65.6167,-251.467 68.6349,-255.453 62.029,-254.184 71.6531,-259.44 71.6531,-259.44"/>
</g>
<!-- Version&#45;&gt;Price -->
<g id="edge26" class="edge"><title>Version&#45;&gt;Price</title>
<path fill="none" stroke="#0632c9" d="M389.727,-65.2379C393.574,-58.5062 397.775,-51.154 401.673,-44.3333"/>
<ellipse fill="none" stroke="#0632c9" cx="387.613" cy="-68.938" rx="4.00002" ry="4.00002"/>
<polygon fill="#0632c9" stroke="#0632c9" points="401.776,-44.1524 410.644,-37.7026 404.257,-39.8112 406.737,-35.4699 406.737,-35.4699 406.737,-35.4699 404.257,-39.8112 402.83,-33.2373 401.776,-44.1524 401.776,-44.1524"/>
</g>
<!-- WebConsole::ConsoleSession -->
<g id="node17" class="node"><title>WebConsole::ConsoleSession</title>
<polygon fill="none" stroke="black" points="1000.81,-324 817.49,-324 817.49,-288 1000.81,-288 1000.81,-324"/>
<text text-anchor="middle" x="909.149" y="-301.8" font-family="Times,serif" font-size="14.00">WebConsole::ConsoleSession</text>
</g>
<!-- ActiveRecord::Base -->
<g id="node18" class="node"><title>ActiveRecord::Base</title>
<ellipse fill="none" stroke="black" cx="381.149" cy="-396.5" rx="81.1422" ry="18"/>
<text text-anchor="middle" x="381.149" y="-392.3" font-family="Times,serif" font-size="14.00">ActiveRecord::Base</text>
</g>
<!-- ActiveRecord::Base&#45;&gt;Address -->
<g id="edge1" class="edge"><title>ActiveRecord::Base&#45;&gt;Address</title>
<path fill="none" stroke="black" d="M347.15,-379.969C330.56,-372.943 310.13,-365.09 291.149,-360 186.545,-331.95 140.118,-384.285 50.1487,-324 7.22856,-295.241 -11.1999,-264.297 7.1487,-216 25.3927,-167.979 71.4714,-126.607 98.1732,-105.645"/>
</g>
<!-- ActiveRecord::Base&#45;&gt;Brand -->
<g id="edge3" class="edge"><title>ActiveRecord::Base&#45;&gt;Brand</title>
<path fill="none" stroke="black" d="M378.794,-378.324C374.56,-347.432 365.708,-282.855 361.486,-252.053"/>
</g>
<!-- ActiveRecord::Base&#45;&gt;City -->
<g id="edge5" class="edge"><title>ActiveRecord::Base&#45;&gt;City</title>
<path fill="none" stroke="black" d="M343.828,-380.478C299.123,-362.26 228.989,-332.885 219.149,-324 191.816,-299.322 188.569,-287.32 178.149,-252 171.011,-227.805 170.935,-198.34 171.823,-180.124"/>
</g>
<!-- ActiveRecord::Base&#45;&gt;Country -->
<g id="edge8" class="edge"><title>ActiveRecord::Base&#45;&gt;Country</title>
<path fill="none" stroke="black" d="M368.23,-378.436C356.138,-362.464 338.204,-338.775 326.35,-323.117"/>
</g>
<!-- ActiveRecord::Base&#45;&gt;DeviceLocation -->
<g id="edge9" class="edge"><title>ActiveRecord::Base&#45;&gt;DeviceLocation</title>
<path fill="none" stroke="black" d="M405.12,-379.128C424.12,-365.544 450.77,-345.101 471.149,-324 483.342,-311.374 550.385,-218.432 578.126,-179.783"/>
</g>
<!-- ActiveRecord::Base&#45;&gt;DeviceModel -->
<g id="edge11" class="edge"><title>ActiveRecord::Base&#45;&gt;DeviceModel</title>
<path fill="none" stroke="black" d="M415.986,-380.084C453.478,-363.494 512.615,-337.326 549.022,-321.216"/>
</g>
<!-- ActiveRecord::Base&#45;&gt;DeviceTrack -->
<g id="edge12" class="edge"><title>ActiveRecord::Base&#45;&gt;DeviceTrack</title>
<path fill="none" stroke="black" d="M460.476,-392.495C562.595,-386.767 731.53,-370.363 770.149,-324 804.755,-282.453 780.929,-212.043 767.107,-179.904"/>
</g>
<!-- ActiveRecord::Base&#45;&gt;Driver -->
<g id="edge13" class="edge"><title>ActiveRecord::Base&#45;&gt;Driver</title>
<path fill="none" stroke="black" d="M438.894,-383.768C499.681,-370.946 597.917,-348.884 681.149,-324 687.799,-322.012 694.883,-319.606 701.48,-317.238"/>
</g>
<!-- ActiveRecord::Base&#45;&gt;Model -->
<g id="edge15" class="edge"><title>ActiveRecord::Base&#45;&gt;Model</title>
<path fill="none" stroke="black" d="M386.498,-378.481C395.809,-346.375 412.844,-274.813 400.149,-216 397.378,-203.165 391.232,-189.698 385.854,-179.551"/>
</g>
<!-- ActiveRecord::Base&#45;&gt;Price -->
<g id="edge16" class="edge"><title>ActiveRecord::Base&#45;&gt;Price</title>
<path fill="none" stroke="black" d="M395.444,-378.473C417.459,-350.456 457.149,-292.037 457.149,-235 457.149,-235 457.149,-235 457.149,-161 457.149,-114.043 436.198,-61.6573 424.249,-35.5997"/>
</g>
<!-- ActiveRecord::Base&#45;&gt;Province -->
<g id="edge18" class="edge"><title>ActiveRecord::Base&#45;&gt;Province</title>
<path fill="none" stroke="black" d="M344.89,-380.299C303.27,-362.499 239.843,-334.155 233.149,-324 218.932,-302.434 221.562,-271.131 225.108,-251.972"/>
</g>
<!-- ActiveRecord::Base&#45;&gt;TrackingDevice -->
<g id="edge21" class="edge"><title>ActiveRecord::Base&#45;&gt;TrackingDevice</title>
<path fill="none" stroke="black" d="M449.562,-386.676C520.411,-375.968 624.082,-355.359 648.149,-324 664.309,-302.943 651.076,-271.194 640.069,-251.855"/>
</g>
<!-- ActiveRecord::Base&#45;&gt;User -->
<g id="edge24" class="edge"><title>ActiveRecord::Base&#45;&gt;User</title>
<path fill="none" stroke="black" d="M345.625,-380.247C329.224,-373.527 309.382,-365.848 291.149,-360 228.33,-339.854 209.79,-344.69 147.149,-324 140.856,-321.922 134.164,-319.321 128.052,-316.784"/>
</g>
<!-- ActiveRecord::Base&#45;&gt;Vehicle -->
<g id="edge25" class="edge"><title>ActiveRecord::Base&#45;&gt;Vehicle</title>
<path fill="none" stroke="black" d="M347.12,-380.08C330.523,-373.078 310.096,-365.215 291.149,-360 195.2,-333.591 141.47,-393.403 70.1487,-324 50.9831,-305.35 49.7752,-272.222 51.1265,-252.069"/>
</g>
<!-- ActiveRecord::Base&#45;&gt;Version -->
<g id="edge27" class="edge"><title>ActiveRecord::Base&#45;&gt;Version</title>
<path fill="none" stroke="black" d="M338.405,-381.148C312.474,-369.972 281.51,-351.638 266.149,-324 258.376,-310.015 262.648,-303.612 266.149,-288 270.02,-270.735 324.815,-159.032 334.149,-144 342.323,-130.834 353.234,-117.155 361.887,-106.991"/>
</g>
<!-- Object -->
<g id="node19" class="node"><title>Object</title>
<ellipse fill="none" stroke="black" cx="909.149" cy="-396.5" rx="33.8596" ry="18"/>
<text text-anchor="middle" x="909.149" y="-392.3" font-family="Times,serif" font-size="14.00">Object</text>
</g>
<!-- Object&#45;&gt;WebConsole::ConsoleSession -->
<g id="edge28" class="edge"><title>Object&#45;&gt;WebConsole::ConsoleSession</title>
<path fill="none" stroke="black" d="M909.149,-378.436C909.149,-362.765 909.149,-339.666 909.149,-324.011"/>
</g>
</g>
</svg>
